<!--?xml version="1.0" encoding="utf-8"?-->
<!-- Generator: Adobe Illustrator 15.1.0, SVG Export Plug-In . SVG Version: 6.00 Build 0)  -->

<svg version="1.1" id="_x32_" xmlns="http://www.w3.org/2000/svg" xmlns:xlink="http://www.w3.org/1999/xlink" x="0px" y="0px" width="512px" height="512px" viewBox="0 0 512 512" style="width: 256px; height: 256px; opacity: 1;" xml:space="preserve">
<style type="text/css">

	.st0{fill:#4B4B4B;}

</style>
<g>
	<path class="st0" d="M510.779,164.547l-9.766-28.094c-1.531-4.406-4.766-7.984-8.969-9.969c0,0-10.625-4.219-20.422-8.891
		c9.531-20.188,20.938-30.016,20.938-30.016L477.67,76.75c-16.578,7.516-26.422,17.141-31.922,24.203
		c-12.969-11.063-14.172-18.109-14.172-18.109c-2.172-4.734-7.625-5.063-12.203-5.063H17.279c-9.547,0-17.281,7.75-17.281,17.281
		v55.844c0,9.531,7.734,17.266,17.281,17.266h85.297c0,13.203,8.109,14.219,27.406,14.219c14.25,0,9.219,9.063,17.297,33.469
		c6.719,20.25,28.438,45.75,62.969,45.75c19.297,0,48.704,0,73.079,0c33.547,0,38.625,21.281,42.688,34.484
		c4.641,15.031,28.734,108.313,28.734,108.313c-27.375,0-17.172,30.844,1.047,30.844c4.063,0,53.484,0,91.063,0
		c50.109,0,60.609-44.047,49.766-79.25c-4.641-15.063-19.891-54.188-28.484-84.25c-9.406-32.953,3.266-57.266,17.781-73.125
		c13.672-14.922,19.094-14.734,19.094-14.734C512.326,181.688,513.232,171.563,510.779,164.547z M283.326,216.563
		c0,15.906-12.891,28.781-28.782,28.781h-44.297c-29.953,0-40.656-16.281-40.656-36.891c0-13.875,7.109-29.781,34.875-29.781
		c11.5,0,27.75,0,50.094,0c2.329,0,4.438,0.188,6.422,0.484c1.344,11.813,1.25,34.688-16.204,49.234
		c4.078,5.422,10.828,8.125,10.828,8.125s14.219-6.406,27.719-25.391C283.326,214.234,283.326,216.563,283.326,216.563z" style="fill: rgb(255, 255, 255);"></path>
</g>
</svg>
